HIERARCHY
ROOT Hips
{
	OFFSET -0.001795 -0.223333 0.028219
	CHANNELS 6 Xposition Yposition Zposition Zrotation Yrotation Xrotation 
	JOINT LeftUpLeg
	{
		OFFSET 0.069520 -0.091406 -0.006815
		CHANNELS 3 Zrotation Yrotation Xrotation
		JOINT LeftLeg
		{
			OFFSET 0.034277 -0.375199 -0.004496
			CHANNELS 3 Zrotation Yrotation Xrotation
			JOINT LeftFoot
			{
				OFFSET -0.013596 -0.397961 -0.043693
				CHANNELS 3 Zrotation Yrotation Xrotation
				JOINT LeftToe
				{
					OFFSET 0.026358 -0.055791 0.119288
					CHANNELS 3 Zrotation Yrotation Xrotation
					End Site
					{
						OFFSET 0.000000 0.000000 0.000000
					}
				}
			}
		}
	}
	JOINT RightUpLeg
	{
		OFFSET -0.067670 -0.090522 -0.004320
		CHANNELS 3 Zrotation Yrotation Xrotation
		JOINT RightLeg
		{
			OFFSET -0.038290 -0.382569 -0.008850
			CHANNELS 3 Zrotation Yrotation Xrotation
			JOINT RightFoot
			{
				OFFSET 0.015774 -0.398415 -0.042312
				CHANNELS 3 Zrotation Yrotation Xrotation
				JOINT RightToe
				{
					OFFSET -0.025372 -0.048144 0.123348
					CHANNELS 3 Zrotation Yrotation Xrotation
					End Site
					{
						OFFSET 0.000000 0.000000 0.000000
					}
				}
			}
		}
	}
	JOINT Spine
	{
		OFFSET -0.002533 0.108963 -0.026696
		CHANNELS 3 Zrotation Yrotation Xrotation
		JOINT Spine1
		{
			OFFSET 0.005487 0.135180 0.001092
			CHANNELS 3 Zrotation Yrotation Xrotation
			JOINT Spine2
			{
				OFFSET 0.001457 0.052922 0.025425
				CHANNELS 3 Zrotation Yrotation Xrotation
				JOINT Neck
				{
					OFFSET -0.002778 0.213870 -0.042857
					CHANNELS 3 Zrotation Yrotation Xrotation
					JOINT Head
					{
						OFFSET 0.005152 0.064970 0.051349
						CHANNELS 3 Zrotation Yrotation Xrotation
						End Site
						{
							OFFSET 0.000000 0.000000 0.000000
						}
					}
				}
				JOINT LeftShoulder
				{
					OFFSET 0.078845 0.121749 -0.034090
					CHANNELS 3 Zrotation Yrotation Xrotation
					JOINT LeftArm
					{
						OFFSET 0.090977 0.030469 -0.008868
						CHANNELS 3 Zrotation Yrotation Xrotation
						JOINT LeftForeArm
						{
							OFFSET 0.259612 -0.012772 -0.027456
							CHANNELS 3 Zrotation Yrotation Xrotation
							JOINT LeftHand
							{
								OFFSET 0.249234 0.008986 -0.001171
								CHANNELS 3 Zrotation Yrotation Xrotation
								End Site
								{
									OFFSET 0.000000 0.000000 0.000000
								}
							}
						}
					}
				}
				JOINT RightShoulder
				{
					OFFSET -0.081759 0.118833 -0.038615
					CHANNELS 3 Zrotation Yrotation Xrotation
					JOINT RightArm
					{
						OFFSET -0.096012 0.032551 -0.009143
						CHANNELS 3 Zrotation Yrotation Xrotation
						JOINT RightForeArm
						{
							OFFSET -0.253742 -0.013329 -0.021401
							CHANNELS 3 Zrotation Yrotation Xrotation
							JOINT RightHand
							{
								OFFSET -0.255298 0.007772 -0.005559
								CHANNELS 3 Zrotation Yrotation Xrotation
								End Site
								{
									OFFSET 0.000000 0.000000 0.000000
								}
							}
						}
					}
				}
			}
		}
	}
}
MOTION
Frames: 17
Frame Time: 0.050000
0.000000 0.861569 0.000000 -1.595267 2.809956 -13.275017 19.021619 0.819846 -9.968632 -6.354843 0.838767 32.362742 6.924399 13.375806 -3.502063 0.000000 0.000000 0.000000 -9.548799 0.017691 -11.865856 8.753175 -3.139518 41.861775 -2.859791 -2.438787 -11.238778 0.000000 0.000000 0.000000 -1.492615 -0.966915 26.397568 5.269313 -0.964282 -21.058847 -0.154490 -0.729418 24.478069 -2.131018 2.908350 -21.701366 0.000000 0.000000 0.000000 -29.835007 -10.819951 4.724898 -38.921952 -27.894449 2.228083 29.081522 -72.630189 -17.407863 0.000000 0.000000 0.000000 23.691919 12.772830 6.333135 42.983024 16.795966 -0.663939 -23.545402 68.379780 -11.651772 0.000000 0.000000 0.000000 
0.007486 0.857688 0.004511 -2.357081 2.004914 -13.490956 20.796711 0.982088 -9.241703 -8.311781 1.705673 32.616241 7.327153 13.869576 -5.471982 0.000000 0.000000 0.000000 -9.155965 0.086443 -11.941724 8.693339 -3.007636 42.707852 -2.800818 -1.911236 -11.603742 0.000000 0.000000 0.000000 -1.643845 -0.880528 25.815159 5.406960 -0.965592 -22.033983 1.043273 -0.442859 24.994725 -2.348588 3.018420 -21.079052 0.000000 0.000000 0.000000 -31.180614 -9.961566 4.273729 -38.530039 -27.605751 2.003129 25.843113 -75.907198 -15.856604 0.000000 0.000000 0.000000 22.943352 12.543606 6.130031 44.340033 16.595714 -0.777815 -21.762801 70.709494 -10.779825 0.000000 0.000000 0.000000 
0.015613 0.856981 0.008764 -2.596378 3.135754 -14.676691 19.822560 0.812420 -8.677475 -7.298746 1.120697 33.768446 7.229885 13.237845 -6.755726 0.000000 0.000000 0.000000 -10.027789 -0.107294 -9.944228 9.140136 -3.462929 42.375416 -2.780619 -2.115512 -11.412849 0.000000 0.000000 0.000000 -1.885410 -0.901873 25.632784 7.278941 -1.521475 -21.865351 -0.394828 0.223988 24.696851 -1.584721 2.785736 -22.460432 0.000000 0.000000 0.000000 -32.373343 -10.246615 3.878587 -38.576956 -27.590564 2.211615 22.480868 -75.534189 -13.490573 0.000000 0.000000 0.000000 24.393146 12.843391 6.790835 42.303448 17.570611 -0.549627 -20.898634 69.493628 -9.898633 0.000000 0.000000 0.000000 
0.023622 0.856763 0.012386 -2.478278 2.562837 -16.219103 19.817851 0.800519 -7.060133 -8.038637 1.480755 34.734734 7.377243 13.481365 -7.298626 0.000000 0.000000 0.000000 -10.267802 -0.162385 -8.596241 8.260821 -2.879591 43.201639 -2.460621 -1.276687 -10.772282 0.000000 0.000000 0.000000 -2.612137 -0.745781 25.707459 7.656032 -1.727077 -21.384785 0.178055 0.396691 24.782827 -2.226087 3.167492 -21.623608 0.000000 0.000000 0.000000 -33.272270 -9.428256 3.395068 -38.646184 -27.834080 2.298185 15.462474 -74.360795 -7.856335 0.000000 0.000000 0.000000 23.594980 14.070468 7.313486 42.658267 18.026583 -0.329626 -19.611453 70.029470 -9.194544 0.000000 0.000000 0.000000 
0.030546 0.856416 0.015460 -2.259481 2.290747 -16.552026 18.799200 0.766574 -7.103334 -7.531530 1.315118 36.119293 7.632940 14.070525 -7.531703 0.000000 0.000000 0.000000 -10.732800 -0.203573 -8.451938 7.745188 -2.547987 43.816167 -2.257473 -0.833090 -10.284526 0.000000 0.000000 0.000000 -2.921261 -0.657608 25.274948 8.036884 -1.849131 -21.466074 0.235559 1.537968 24.681682 -1.889731 3.139720 -22.256275 0.000000 0.000000 0.000000 -32.656064 -9.989270 3.361458 -39.421131 -27.175505 2.306606 8.049595 -72.651728 -2.382329 0.000000 0.000000 0.000000 23.720738 14.322303 7.744011 41.730504 19.464648 0.076814 -17.695250 68.236595 -7.517780 0.000000 0.000000 0.000000 
0.035576 0.852819 0.017803 -2.169170 2.320978 -16.996732 19.018963 0.828416 -7.496882 -8.456445 1.727360 37.944789 7.728073 14.155058 -8.202317 0.000000 0.000000 0.000000 -10.937836 -0.237430 -8.599240 7.087562 -2.263834 45.975529 -2.236397 -0.123636 -11.276330 0.000000 0.000000 0.000000 -2.933935 -0.646053 24.875810 7.979920 -1.835047 -21.499453 0.527193 1.707967 24.663521 -1.603001 2.964310 -21.832848 0.000000 0.000000 0.000000 -32.527732 -10.252841 3.470295 -39.195301 -26.873177 2.207372 0.541284 -69.968145 2.891433 0.000000 0.000000 0.000000 23.198087 15.677562 8.475548 40.569696 20.876058 0.517928 -15.635422 65.948233 -6.046364 0.000000 0.000000 0.000000 
0.038544 0.846925 0.019813 -2.103760 1.946958 -17.484276 19.172438 0.930706 -8.101441 -8.871293 2.007756 40.410288 7.938520 14.567406 -8.898336 0.000000 0.000000 0.000000 -10.841487 -0.223656 -9.300897 6.521689 -1.902580 47.985914 -2.317203 -0.282799 -11.363435 0.000000 0.000000 0.000000 -2.841968 -0.640460 24.774300 7.934765 -1.855231 -21.324198 0.510797 2.286007 24.116495 -1.066068 2.665058 -21.563727 0.000000 0.000000 0.000000 -32.201621 -11.296802 3.990450 -38.427856 -26.485936 2.102264 -2.781078 -67.002153 4.741076 0.000000 0.000000 0.000000 23.310071 16.141383 8.818642 39.646163 22.238120 0.941564 -12.071397 63.379317 -3.714574 0.000000 0.000000 0.000000 
0.039860 0.839244 0.022004 -2.351519 2.060222 -18.238812 19.703839 1.022407 -8.554191 -9.135762 2.113115 42.824381 8.021472 14.495956 -10.176694 0.000000 0.000000 0.000000 -10.914925 -0.255762 -9.315100 6.417231 -1.910632 49.381658 -2.258142 0.258204 -11.882212 0.000000 0.000000 0.000000 -2.547841 -0.698725 24.648296 8.302364 -1.982429 -21.281234 0.371091 2.472915 24.236011 -0.516826 2.370865 -21.925924 0.000000 0.000000 0.000000 -32.301668 -11.879707 4.262600 -37.697843 -26.330981 2.015358 -5.294334 -63.490580 5.881224 0.000000 0.000000 0.000000 23.444461 17.070188 9.437314 37.766709 23.716077 1.242409 -9.491337 59.702355 -2.185673 0.000000 0.000000 0.000000 
0.039756 0.831033 0.024465 -2.042109 1.571627 -19.102684 19.862071 1.092189 -8.258320 -9.450606 2.398441 44.689634 8.250957 14.888112 -11.477411 0.000000 0.000000 0.000000 -11.126156 -0.280750 -9.623134 6.032336 -1.526602 50.909984 -2.260484 0.548524 -12.165971 0.000000 0.000000 0.000000 -2.681723 -0.644740 24.488581 8.462015 -2.151106 -20.450905 0.245369 2.839410 23.915733 -0.390153 2.281212 -21.497026 0.000000 0.000000 0.000000 -33.113861 -12.309896 4.496776 -36.727001 -26.160173 1.939194 -7.242763 -59.501941 6.451085 0.000000 0.000000 0.000000 23.463391 17.618827 9.722621 36.598573 24.709076 1.479705 -6.237115 56.100886 -0.509512 0.000000 0.000000 0.000000 
0.038372 0.824688 0.027381 -2.168214 1.231476 -19.856816 20.073869 1.132042 -7.849714 -9.021586 2.229222 46.067749 8.407475 15.106766 -12.655060 0.000000 0.000000 0.000000 -10.725190 -0.243040 -9.445374 5.584334 -1.162712 51.486957 -2.259805 0.814850 -12.473081 0.000000 0.000000 0.000000 -2.308084 -0.684945 24.146615 8.243444 -2.122539 -20.198155 0.038071 2.613993 24.167197 -0.096900 2.084469 -22.443996 0.000000 0.000000 0.000000 -33.162084 -12.701980 4.943218 -36.679273 -26.181941 1.884102 -7.413400 -55.171492 6.028540 0.000000 0.000000 0.000000 23.814757 18.243632 10.020707 36.172426 24.527964 1.404304 -3.372856 52.693362 0.772837 0.000000 0.000000 0.000000 
0.036195 0.821284 0.030497 -2.142785 1.170237 -20.461286 20.057022 1.099863 -7.073056 -8.567506 1.973358 46.398300 8.475751 15.115486 -13.543975 0.000000 0.000000 0.000000 -10.533292 -0.239915 -8.763775 5.425790 -1.039006 51.991930 -2.533392 0.784796 -13.780716 0.000000 0.000000 0.000000 -2.380406 -0.666184 23.901172 8.133694 -2.102464 -20.127000 0.154336 2.177682 24.616925 -0.247324 2.088419 -22.233028 0.000000 0.000000 0.000000 -33.905809 -12.925850 5.345994 -36.204954 -25.559381 1.571178 -8.285087 -52.109589 6.111977 0.000000 0.000000 0.000000 24.108473 18.361488 9.983922 35.848160 23.553784 1.100062 -0.623158 50.886994 1.901812 0.000000 0.000000 0.000000 
0.034093 0.822005 0.033525 -2.060694 1.150019 -20.304987 20.000282 1.036611 -6.385719 -8.376182 1.874436 45.406504 8.513799 15.140267 -13.959420 0.000000 0.000000 0.000000 -10.443346 -0.230038 -8.174062 5.414087 -1.018111 51.203077 -2.757981 0.723873 -14.824915 0.000000 0.000000 0.000000 -2.649898 -0.607382 23.341454 8.654461 -2.298737 -19.845754 -0.186871 2.064291 24.316201 -0.308811 2.114946 -22.465889 0.000000 0.000000 0.000000 -34.193066 -12.403635 5.037940 -36.011735 -25.167713 1.444700 -8.346831 -49.987981 5.856784 0.000000 0.000000 0.000000 24.450485 18.311220 9.962862 36.195004 22.467378 0.843624 0.781447 49.414101 2.442427 0.000000 0.000000 0.000000 
0.032761 0.827018 0.036568 -2.034259 0.980641 -20.049263 19.694199 0.915599 -5.071285 -7.886460 1.646635 43.193799 8.535723 15.239485 -13.838078 0.000000 0.000000 0.000000 -10.035291 -0.186703 -7.436921 5.052630 -0.755313 49.759872 -2.730055 0.726134 -14.658632 0.000000 0.000000 0.000000 -2.437309 -0.610327 22.649365 8.278932 -2.166160 -19.835360 -0.153826 1.214756 24.342294 -0.519921 2.068383 -22.139500 0.000000 0.000000 0.000000 -34.145069 -11.772080 5.041267 -36.208612 -24.610989 1.150847 -8.222902 -49.532866 5.861614 0.000000 0.000000 0.000000 24.027214 18.231030 9.569733 36.851192 21.223291 0.604189 1.579479 49.113036 2.711612 0.000000 0.000000 0.000000 
0.032283 0.834282 0.039734 -1.718910 0.411661 -19.709944 19.394532 0.820270 -3.633975 -7.978628 1.813574 40.761245 8.529054 15.528466 -12.805810 0.000000 0.000000 0.000000 -9.942443 -0.160508 -6.644656 4.619161 -0.338271 47.826541 -2.514782 1.216439 -14.052798 0.000000 0.000000 0.000000 -2.630027 -0.533767 21.926588 8.342100 -2.173821 -20.042470 -0.097197 1.127658 24.234736 -1.283993 2.493296 -22.067428 0.000000 0.000000 0.000000 -34.587763 -11.066184 4.763274 -36.223997 -23.827905 0.864542 -8.180431 -48.655729 5.776046 0.000000 0.000000 0.000000 23.768195 17.734153 9.111804 37.198739 20.379531 0.408772 2.868366 48.334222 3.198000 0.000000 0.000000 0.000000 
0.032243 0.842429 0.043380 -1.615655 0.279286 -19.028538 19.095394 0.692986 -2.383233 -7.947031 1.804880 37.783362 8.477675 15.586872 -11.922908 0.000000 0.000000 0.000000 -9.834224 -0.139912 -5.932304 4.398672 -0.211159 45.571296 -2.278003 1.367867 -13.066660 0.000000 0.000000 0.000000 -2.505329 -0.520387 20.976578 8.178895 -2.067480 -20.459373 -0.169280 0.689845 24.553736 -1.634234 2.630017 -22.052136 0.000000 0.000000 0.000000 -34.626687 -10.028208 4.302015 -36.423830 -23.715305 0.729139 -7.717903 -48.557513 5.646671 0.000000 0.000000 0.000000 23.420604 17.533799 8.828411 37.016922 20.211048 0.352817 2.905497 47.571580 3.115101 0.000000 0.000000 0.000000 
0.032183 0.848418 0.047538 -1.340194 0.047351 -18.759047 18.483832 0.597087 -1.237862 -7.616472 1.683920 35.885075 8.470504 15.790524 -10.984695 0.000000 0.000000 0.000000 -9.786583 -0.133216 -5.132830 3.917515 0.090018 43.986642 -2.087804 1.607282 -12.397667 0.000000 0.000000 0.000000 -2.622540 -0.480044 20.381544 7.738060 -1.941479 -20.324011 0.156981 0.709395 24.252324 -2.240112 2.991686 -21.679342 0.000000 0.000000 0.000000 -34.940357 -9.570945 4.037020 -36.476623 -23.404505 0.638672 -7.562408 -48.654659 5.607328 0.000000 0.000000 0.000000 23.335827 17.370111 8.672089 36.527123 19.718482 0.214718 3.017424 46.971357 3.074361 0.000000 0.000000 0.000000 
0.031946 0.851842 0.051944 -1.399571 0.298325 -18.522289 18.323334 0.500173 -0.342788 -7.346871 1.508814 34.260304 8.403543 15.602216 -10.885040 0.000000 0.000000 0.000000 -9.714472 -0.144453 -4.117287 3.893560 0.013307 42.428416 -2.128333 1.460668 -12.462664 0.000000 0.000000 0.000000 -2.611170 -0.478442 19.745207 7.838887 -1.967530 -20.214207 0.014435 0.469226 24.278154 -2.615453 3.224542 -21.979586 0.000000 0.000000 0.000000 -35.104371 -8.994074 3.670821 -36.465896 -23.943936 0.780176 -6.341908 -48.425072 5.052598 0.000000 0.000000 0.000000 23.103883 17.628026 8.778054 35.881322 19.703484 0.186229 2.387199 46.146109 2.722578 0.000000 0.000000 0.000000 
